<?xml version="1.0" encoding="utf-8"?>
<svg xmlns="http://www.w3.org/2000/svg" viewBox="0 0 146.46 146.46">
    <defs>
        <style>
            .cls-1 { fill: #fff; }
            .cls-2 { fill: #00ef8b; }
            .cls-3 { fill: #16ff99; }
        </style>
    </defs>
    <g id="Layer_2" data-name="Layer 2">
        <g id="Layer_1-2" data-name="Layer 1">
            <circle class="cls-2" cx="73.23" cy="73.23" r="73.23"/>
            <rect class="cls-1" x="84.69" y="61.77" width="20.68" height="20.68"/>
            <path class="cls-1" d="M64,90.2a7.76,7.76,0,1,1-7.75-7.75H64V61.77H56.26A28.43,28.43,0,1,0,84.69,90.2V82.45H64Z"/>
            <path class="cls-1" d="M92.44,51.43H115.7V30.76H92.44A28.46,28.46,0,0,0,64,59.19v2.58H84.69V59.19A7.77,7.77,0,0,1,92.44,51.43Z"/>
            <polygon class="cls-3" points="64.01 82.45 84.69 82.45 84.69 82.45 84.69 61.77 84.69 61.77 64.01 61.77 64.01 82.45"/>
        </g>
    </g>
</svg>