<?xml version="1.0" encoding="utf-8"?>
<!-- Generator: Adobe Illustrator 26.4.0, SVG Export Plug-In . SVG Version: 6.00 Build 0)  -->
<svg version="1.1" id="Layer_1" xmlns="http://www.w3.org/2000/svg" xmlns:xlink="http://www.w3.org/1999/xlink" x="0px" y="0px"
	 viewBox="0 0 146.5 146.5" style="enable-background:new 0 0 146.5 146.5;" xml:space="preserve">
<style type="text/css">
	.st0{fill:#FFFFFF;}
</style>
<g id="Layer_2_00000163074053560540247960000005570157693002250642_">
	<g id="Layer_1-2_00000037667098065836610890000002822982229415725219_">
		<g>
			<path class="st0" d="M73.2,0C32.8,0,0,32.8,0,73.2c0,40.4,32.8,73.2,73.2,73.2c40.4,0,73.2-32.8,73.2-73.2
				C146.5,32.8,113.7,0,73.2,0z M105.4,82.5H84.7v7.8c0,15.7-12.7,28.4-28.4,28.4s-28.4-12.7-28.4-28.4c0-15.7,12.7-28.4,28.4-28.4
				H64v20.7h20.7V61.8h20.7V82.5z M115.7,51.4H92.4c-4.3,0-7.7,3.5-7.8,7.8v2.6H64v-2.6c0-15.7,12.7-28.4,28.4-28.4h23.3V51.4z"/>
			<path class="st0" d="M56.2,82.5c-4.3,0-7.8,3.5-7.8,7.8c0,4.3,3.5,7.8,7.8,7.8s7.8-3.5,7.8-7.8v-7.8H56.2
				C56.2,82.4,56.2,82.4,56.2,82.5z"/>
		</g>
		<polygon class="st0" points="64,82.4 84.7,82.4 84.7,82.4 84.7,61.8 84.7,61.8 64,61.8 		"/>
	</g>
</g>
</svg>
