<svg viewBox="0 0 313 281" xmlns="http://www.w3.org/2000/svg"><defs><clipPath id="a"><path d="M0 0h312.93v280.377H0Z"/></clipPath><linearGradient id="b" x1="26.415" x2="283.735" gradientUnits="userSpaceOnUse" y1="287.059" y2="-2.496"><stop offset="8%" stop-color="#9945FF"/><stop offset="30%" stop-color="#8752F3"/><stop offset="50%" stop-color="#5497D5"/><stop offset="60%" stop-color="#43B4CA"/><stop offset="72%" stop-color="#28E0B9"/><stop offset="97%" stop-color="#19FB9B"/></linearGradient></defs><path clip-path="url(#a)" fill="url(#b)" d="M311.318 221.05l-51.66 55.5c-1.13 1.2-2.49 2.16-4 2.82 -1.51.65-3.14.99-4.79.99H5.97c-1.17 0-2.32-.35-3.29-.99 -.98-.65-1.75-1.56-2.22-2.63 -.47-1.08-.61-2.26-.42-3.42 .19-1.16.72-2.23 1.52-3.08l51.69-55.51c1.12-1.21 2.47-2.17 3.97-2.82 1.5-.66 3.12-1 4.77-1h244.87c1.16 0 2.31.34 3.28.98 .97.64 1.74 1.55 2.21 2.63 .46 1.07.6 2.26.41 3.41 -.2 1.15-.73 2.22-1.53 3.08Zm-51.66-111.763c-1.13-1.21-2.49-2.17-4-2.83 -1.51-.66-3.14-1-4.79-1H5.97c-1.17 0-2.32.34-3.29.98 -.98.64-1.75 1.55-2.22 2.62 -.47 1.07-.61 2.26-.42 3.41 .19 1.15.72 2.22 1.52 3.08l51.69 55.5c1.12 1.2 2.47 2.16 3.97 2.81 1.5.65 3.12.99 4.77 1h244.87c1.16 0 2.31-.35 3.28-.99 .97-.65 1.74-1.56 2.21-2.63 .46-1.08.6-2.26.41-3.42 -.2-1.16-.73-2.23-1.53-3.08l-51.66-55.51ZM5.98 69.417h244.88c1.64 0 3.27-.34 4.78-1 1.5-.66 2.86-1.62 3.99-2.83l51.65-55.51c.79-.86 1.32-1.93 1.52-3.08 .19-1.16.05-2.35-.41-3.42 -.47-1.08-1.24-1.99-2.22-2.63 -.98-.65-2.12-.99-3.29-.99H62c-1.65 0-3.27.34-4.78.99 -1.51.65-2.86 1.61-3.98 2.81L1.55 59.25c-.8.85-1.33 1.92-1.53 3.07 -.2 1.15-.06 2.33.4 3.41 .46 1.07 1.23 1.98 2.2 2.62 .97.64 2.11.98 3.28.98Z"/></svg>