<svg viewBox="0 -.053 339.43 295.374" xmlns="http://www.w3.org/2000/svg"><g fill="#50AF95" fill-rule="evenodd"><path d="M62.15 1.45l-61.89 130H.25c-.49.99-.27 2.18.54 2.94l167.15 160.17h-.001c.98.94 2.54.94 3.53 0L338.62 134.4v0c.8-.76 1.02-1.95.54-2.94l-61.89-130v0c-.41-.9-1.3-1.47-2.28-1.46H64.44v0c-.99-.02-1.89.55-2.3 1.45v0Z"/><path fill="#FFF" d="M191.19 144.8v0c-1.2.09-7.4.46-21.23.46 -11 0-18.81-.33-21.55-.46v0c-42.51-1.87-74.24-9.27-74.24-18.13s31.73-16.25 74.24-18.15v28.91c2.78.2 10.74.67 21.74.67 13.2 0 19.81-.55 21-.66v-28.9c42.42 1.89 74.08 9.29 74.08 18.13s-31.65 16.24-74.08 18.12v0Zm0-39.25V79.68h59.2V40.23H89.21v39.45h59.19v25.86c-48.11 2.21-84.29 11.74-84.29 23.16s36.18 20.94 84.29 23.16v82.9h42.78v-82.93c48-2.21 84.12-11.73 84.12-23.14s-36.09-20.93-84.12-23.15v0Zm0 0v0Z"/></g></svg>